<svg id="Layer_1" data-name="Layer 1" xmlns="http://www.w3.org/2000/svg" viewBox="0 0 420.32 411.02"><defs><style>.cls-1,.cls-2{fill:none;stroke-miterlimit:10;stroke-width:2px;}.cls-1{stroke:#000;}.cls-2{stroke:#e65d4c;}</style></defs><path class="cls-1" d="M816.94,229.7" transform="translate(-683.07 -98.46)"/><path class="cls-2" d="M816,235.88a39.45,39.45,0,1,1,39.44-40v.56" transform="translate(-683.07 -98.46)"/><path class="cls-2" d="M874.61,196.43l-3-25.64a4.92,4.92,0,0,0-4.89-4.34h-.2A4.89,4.89,0,0,1,863,165l-14-14.29a4.9,4.9,0,0,1-1.35-4.2l.35-2.26a4.92,4.92,0,0,0-3.37-5.43l-26.49-8.44a4.92,4.92,0,0,0-6,2.71l-.92,2.09a4.93,4.93,0,0,1-3,2.71L786,145.08a4.89,4.89,0,0,1-4.41-.7l-.68-.49a4.93,4.93,0,0,0-7,1.21l-15.12,22.19a4.92,4.92,0,0,0,.81,6.46l.74.65a4.91,4.91,0,0,1,1.65,4l-1.56,27.48a4.89,4.89,0,0,1-3.11,4.3h0a4.92,4.92,0,0,0-2.27,7.35l17.33,25.43a4.93,4.93,0,0,0,5.78,1.84l2.2-.82a4.89,4.89,0,0,1,3.07-.12l27.64,10.95a4.67,4.67,0,0,1,2.86,3.46l.34,1.79a3.44,3.44,0,0,0,2.44,2.65l.23.07" transform="translate(-683.07 -98.46)"/><path class="cls-1" d="M874.61,189.45l28.54-42.73s-6-15.49,6.81-22.46,18.89-3.41,18.89-3.41l-12.94,11.41,7.83,12.08,13-10.72s2.29,11.91-.77,17.36-6.41,5.9-13.45,7.32c-2.42,3.66-24,37.36-24,37.36" transform="translate(-683.07 -98.46)"/><circle class="cls-1" cx="151.45" cy="325.19" r="17.78"/><path class="cls-1" d="M847.57,404.68c9.08,7.77,11.51,20.29,6.39,29.53a22.56,22.56,0,0,1-20.17,11.24,23.38,23.38,0,0,1-21.7-17.36c-.2-.74-3.08-12.67,5.53-21.54a22.91,22.91,0,0,1,23.4-5.7l17.11-32.59H868Z" transform="translate(-683.07 -98.46)"/><line class="cls-1" x1="141.52" y1="329.03" x2="159.9" y2="318.23"/><line class="cls-1" x1="149.61" y1="331.84" x2="159.9" y2="325.19"/><line class="cls-2" x1="248.73" y1="291.12" x2="238.94" y2="315.09"/><line class="cls-2" x1="252.08" y1="291.78" x2="262.42" y2="314.42"/><path class="cls-1" d="M910.31,368.66c-.16,3,3.63,3.25,3.63,3.25s-4.09-.72-3.63,5c.33,4.16,3.82,4,3.82,4s-5.64-.07-3.86,6.72c.26,1,1.39,1.5,2.44,1.71a9.44,9.44,0,0,0,2,.16h36.76s4,.19,4.49-1.87c1.78-6.79-3.86-6.72-3.86-6.72s3.49.12,3.82-4c.46-5.75-3.63-5-3.63-5s3.79-.28,3.62-3.25-1.81-3.67-1.81-3.67H933" transform="translate(-683.07 -98.46)"/><path class="cls-1" d="M948.37,389.57s-.33,7.47,7.75,15.79,13,29.47-1.16,40.62c-11,8.68-32.29,9.62-44.48-2s-1.32-32.07,3.79-39.76a32.22,32.22,0,0,0,5.11-14.64" transform="translate(-683.07 -98.46)"/><line class="cls-2" x1="216.39" y1="305.76" x2="189.05" y2="301.29"/><line class="cls-2" x1="215.07" y1="332.53" x2="190.18" y2="336.2"/><line class="cls-2" x1="223.02" y1="354.98" x2="202.72" y2="374.89"/><line class="cls-2" x1="248.25" y1="364.93" x2="248.25" y2="390.29"/><line class="cls-2" x1="273.48" y1="356.86" x2="290.56" y2="372.26"/><line class="cls-2" x1="288.15" y1="332.05" x2="312.88" y2="337.05"/><line class="cls-1" x1="148.84" y1="116.27" x2="240.08" y2="116.27"/><line class="cls-1" x1="148.84" y1="132.95" x2="240.08" y2="132.95"/><line class="cls-1" x1="146.46" y1="149.63" x2="237.69" y2="149.63"/><line class="cls-1" x1="146.46" y1="166.31" x2="237.69" y2="166.31"/><line class="cls-1" x1="147.65" y1="182.99" x2="238.88" y2="182.99"/><line class="cls-1" x1="147.65" y1="199.67" x2="238.88" y2="199.67"/><line class="cls-1" x1="145.27" y1="216.35" x2="236.5" y2="216.35"/><line class="cls-1" x1="145.27" y1="233.03" x2="236.5" y2="233.03"/><line class="cls-1" x1="145.27" y1="249.71" x2="236.5" y2="249.71"/><line class="cls-2" x1="288.34" y1="306.69" x2="312.7" y2="300.36"/><polyline class="cls-1" points="316.07 108.56 316.07 97.2 312.69 97.2 312.69 110.57"/><path class="cls-1" d="M999.15,194.85s1.23-7.66,8.38-9.32,17,1.79,24.13-3.19,4.34-10.08,13.4-12.51,11.37-6.45,12.51-12-1.66-8-2-12.86,2.68-11.11-4.47-15.58-12.12-3.7-16.85-1.27-5.61,8.17-5,11.36,1.79,7.91,6.39,10.21-.9,9.45-.9,9.45-2.93,2.55-2.93,5.74-8.17,2.3-8,7.79-23.63-3.56-29.61,8.68c-2.13,11.74,1.64,14.94,1.64,14.94" transform="translate(-683.07 -98.46)"/><path class="cls-1" d="M947.4,243.74l-1.91,111.07a12.23,12.23,0,0,0,6,2c3.06,0,7.4-2.55,7.4-2.55V243.74l-6.7-17.1Z" transform="translate(-683.07 -98.46)"/><polyline class="cls-1" points="275.82 145.29 270.43 147.57 264.32 145.93"/><line class="cls-1" x1="270.07" y1="258.19" x2="270.8" y2="146.57"/><path class="cls-1" d="M971.4,248.09v47s9.88,2.49,16.69.45c.25-6.38.13-29,0-40.51,0-4.17,0-6.89,0-6.89S980.77,219.57,971.4,248.09Z" transform="translate(-683.07 -98.46)"/><path class="cls-1" d="M991.32,255h0Z" transform="translate(-683.07 -98.46)"/><line class="cls-1" x1="308.25" y1="190.57" x2="308.25" y2="156.52"/><path class="cls-1" d="M973.57,295l-1,53.13s7.15,3,13,0c.23-12.34.3-52.22.3-52.22" transform="translate(-683.07 -98.46)"/><line class="cls-1" x1="237.78" y1="269.8" x2="269.12" y2="277.37"/><line class="cls-1" x1="232.99" y1="277.59" x2="269.12" y2="287.08"/><line class="cls-1" x1="231.31" y1="286.23" x2="245.85" y2="290.46"/><path class="cls-2" d="M1011.11,231.49a25.44,25.44,0,0,1,4.46,0,26,26,0,0,1,6.39,1.4" transform="translate(-683.07 -98.46)"/><path class="cls-1" d="M1010.38,237.74c.6,0,4.68-1.53,17.07,1.41" transform="translate(-683.07 -98.46)"/><path class="cls-2" d="M1011.11,246s21.7-2.79,41.49,7.55" transform="translate(-683.07 -98.46)"/><path class="cls-1" d="M1011.11,253.57a49.57,49.57,0,0,1,20.74,2.3" transform="translate(-683.07 -98.46)"/><path class="cls-2" d="M1039.57,257.91s13.28-.38,33.45,16.47" transform="translate(-683.07 -98.46)"/><path class="cls-2" d="M1011.11,261.11s49.78-3.71,79.78,44" transform="translate(-683.07 -98.46)"/><path class="cls-2" d="M1011.11,269.91s24.12,1.45,47.49,19.11" transform="translate(-683.07 -98.46)"/><path class="cls-1" d="M1064,292.51s19.53,13.28,30.64,35.62" transform="translate(-683.07 -98.46)"/><path class="cls-1" d="M1010.38,277.19s55.75,7.41,82.05,68.17" transform="translate(-683.07 -98.46)"/><path class="cls-2" d="M1096,352.77a31.72,31.72,0,0,1,4.34,14" transform="translate(-683.07 -98.46)"/><path class="cls-1" d="M991.32,284.77s36,1.87,53.36,18.21" transform="translate(-683.07 -98.46)"/><path class="cls-1" d="M1051,307.06s7,4.09,9.51,10.22" transform="translate(-683.07 -98.46)"/><path class="cls-1" d="M1064,320.85s29,24.92,34.21,65.95" transform="translate(-683.07 -98.46)"/><path class="cls-2" d="M988.09,295.49c-4.18-7.07,47.16-1.52,70.51,31.74" transform="translate(-683.07 -98.46)"/><path class="cls-1" d="M1064,332.85s31,22.72,28.47,77.36" transform="translate(-683.07 -98.46)"/><path class="cls-1" d="M985.92,303s64.91-5.62,92.35,69.06" transform="translate(-683.07 -98.46)"/><path class="cls-1" d="M1082.72,388.26a32.5,32.5,0,0,1,2,15.95" transform="translate(-683.07 -98.46)"/><path class="cls-1" d="M1085.06,410.21s4.3,11-4,35.49" transform="translate(-683.07 -98.46)"/><path class="cls-1" d="M987,310.32s31.91,1.68,50.55,21.17" transform="translate(-683.07 -98.46)"/><path class="cls-2" d="M1046.21,337.46s56.68,56.41,21.19,120.24" transform="translate(-683.07 -98.46)"/><path class="cls-1" d="M1061.53,469.19a24.38,24.38,0,0,1-8.42,10.47" transform="translate(-683.07 -98.46)"/><path class="cls-1" d="M985.92,317.28s36,4.08,53.65,26.81" transform="translate(-683.07 -98.46)"/><path class="cls-1" d="M1046.21,349.49s27.07,29.83,25.53,70.17" transform="translate(-683.07 -98.46)"/><path class="cls-1" d="M1070.72,432.82s-7.15,28.46-40.59,59.61" transform="translate(-683.07 -98.46)"/><path class="cls-1" d="M1024.77,496.77s-3.7,4.85-12.51,9.7" transform="translate(-683.07 -98.46)"/><path class="cls-1" d="M985.92,323.91s42.93,7.92,58.76,39.07" transform="translate(-683.07 -98.46)"/><path class="cls-2" d="M1053.11,378.55s14.56,29.12,4.21,62.56" transform="translate(-683.07 -98.46)"/><path class="cls-1" d="M1054.38,448.77s-2.55,9.19-11.74,17.87" transform="translate(-683.07 -98.46)"/><path class="cls-1" d="M985.79,331.49s26.29,2.78,46.82,28.67c16.9,21.33,20.67,43.8,15.9,67.8-3.83,19.27-18.38,46.47-35.76,59.53" transform="translate(-683.07 -98.46)"/><path class="cls-1" d="M985.92,337.46s102.68,30.8,30.8,133.25" transform="translate(-683.07 -98.46)"/><path class="cls-2" d="M1012.26,474.43s-19.87,23.27-33,27.19" transform="translate(-683.07 -98.46)"/><path class="cls-1" d="M1007,494.3s-4.89,6.08-15.66,12.17" transform="translate(-683.07 -98.46)"/><path class="cls-1" d="M985.92,345.36s32.36,6.89,43.79,44.85a65.94,65.94,0,0,1-3.44,47.32c-19.68,41.38-69.71,68.94-69.71,68.94" transform="translate(-683.07 -98.46)"/><path class="cls-1" d="M816.94,270.3s-131.32-19.53-64.26-150.36" transform="translate(-683.07 -98.46)"/><line class="cls-2" x1="76.08" y1="10.48" x2="85.27" y2="0.95"/><path class="cls-1" d="M816,278.47s-70.81-12.94-89.53-60.6c-10.56-44.25,3.06-75.91,3.06-75.91" transform="translate(-683.07 -98.46)"/><line class="cls-1" x1="50.53" y1="35.33" x2="53.61" y2="29.2"/><path class="cls-1" d="M816,288s-50.72-2-83.74-44.26" transform="translate(-683.07 -98.46)"/><path class="cls-2" d="M721,225s-21.11-65.15,11.24-105.08" transform="translate(-683.07 -98.46)"/><path class="cls-1" d="M735.14,113.36s8.69-12.93,11.75-14" transform="translate(-683.07 -98.46)"/><path class="cls-1" d="M816.94,296.29s-51.66.9-80.26-35.86" transform="translate(-683.07 -98.46)"/><path class="cls-1" d="M727.83,252.94s-41.53-31.32-17-109.28" transform="translate(-683.07 -98.46)"/><path class="cls-2" d="M816.94,305.36s-78.9,4.09-117-83.4" transform="translate(-683.07 -98.46)"/><path class="cls-1" d="M697.87,210.21s-4.42-20.93-3.4-29.78" transform="translate(-683.07 -98.46)"/><path class="cls-1" d="M696.09,166.13s9.36-36.09,18.16-44.6" transform="translate(-683.07 -98.46)"/><path class="cls-1" d="M816,312.51s-39.5,6.47-80.86-27.74" transform="translate(-683.07 -98.46)"/><path class="cls-2" d="M727.83,278.36s-10.55-11.13-16-17.93" transform="translate(-683.07 -98.46)"/><path class="cls-1" d="M705.17,252.94s-11.72-19.41-14.45-31" transform="translate(-683.07 -98.46)"/><path class="cls-1" d="M686.3,214.72s-8.17-37.7,6.81-70.89" transform="translate(-683.07 -98.46)"/><path class="cls-1" d="M816.94,320.9s-68.31,11.19-122.62-72.81" transform="translate(-683.07 -98.46)"/><path class="cls-2" d="M816.94,330.68s-46.9,4.21-90.47-34.38" transform="translate(-683.07 -98.46)"/><path class="cls-1" d="M723.26,291.74c-1.22-.68-15.52-11.57-22-21.44" transform="translate(-683.07 -98.46)"/><path class="cls-1" d="M816,337.46s-16.68-.1-26.55-3.16" transform="translate(-683.07 -98.46)"/><path class="cls-2" d="M784,334.3c-2.38-2.39-50.72-15-75.57-42.56" transform="translate(-683.07 -98.46)"/><line class="cls-1" x1="22.1" y1="191.93" x2="16.84" y2="183.5"/><path class="cls-2" d="M816.94,344.09s-38.39,6.65-84.68-23.19" transform="translate(-683.07 -98.46)"/><path class="cls-1" d="M726.47,317.28a77.28,77.28,0,0,1-12.22-11.89" transform="translate(-683.07 -98.46)"/><path class="cls-1" d="M816.94,349.49s-17.71,8.55-58.51-6" transform="translate(-683.07 -98.46)"/><line class="cls-2" x1="133.86" y1="257.8" x2="123.73" y2="258.4"/><line class="cls-1" x1="71.93" y1="16.83" x2="73.78" y2="16.51"/><line class="cls-1" x1="29.9" y1="38.91" x2="31.75" y2="38.6"/><line class="cls-1" x1="11.05" y1="75.04" x2="12.9" y2="74.72"/><line class="cls-1" x1="14.6" y1="119" x2="16.45" y2="118.69"/><line class="cls-1" x1="6.72" y1="143.07" x2="8.58" y2="142.75"/><line class="cls-1" x1="42.01" y1="136.16" x2="43.86" y2="135.84"/><line class="cls-1" x1="48.26" y1="183.59" x2="50.11" y2="183.27"/><line class="cls-1" x1="68.08" y1="241.62" x2="69.93" y2="241.3"/><line class="cls-1" x1="358.69" y1="235.57" x2="360.54" y2="235.25"/><line class="cls-1" x1="393.03" y1="179.49" x2="394.88" y2="179.17"/><line class="cls-1" x1="413.66" y1="236.17" x2="415.51" y2="235.85"/><line class="cls-1" x1="418.3" y1="274.83" x2="420.15" y2="274.51"/><line class="cls-1" x1="396.51" y1="280.95" x2="398.36" y2="280.63"/><line class="cls-1" x1="364.26" y1="273.24" x2="366.11" y2="272.92"/><line class="cls-1" x1="408.11" y1="318.18" x2="409.96" y2="317.87"/><line class="cls-1" x1="387.81" y1="327.94" x2="389.66" y2="327.63"/><line class="cls-1" x1="302.01" y1="410.03" x2="303.86" y2="409.71"/><line class="cls-1" x1="267.67" y1="409.43" x2="269.52" y2="409.11"/><rect class="cls-1" x="133.86" y="97.2" width="119.83" height="172.6" rx="12"/><polyline class="cls-1" points="253.69 118.39 277.61 100.01 277.61 118.39 303.14 100.01 303.14 118.39 312.69 111.13 327.31 100.01 327.31 185.46 308.88 185.46"/></svg>